<?xml version="1.0" standalone="no"?>
<!DOCTYPE svg PUBLIC "-//W3C//DTD SVG 20010904//EN"
 "http://www.w3.org/TR/2001/REC-SVG-20010904/DTD/svg10.dtd">
<svg version="1.0" xmlns="http://www.w3.org/2000/svg"
 width="225.000000pt" height="225.000000pt" viewBox="0 0 225.000000 225.000000"
 preserveAspectRatio="xMidYMid meet">

<g transform="translate(0.000000,225.000000) scale(0.100000,-0.100000)"
fill="#000000" stroke="none">
<path d="M1040 2244 c-416 -46 -744 -268 -920 -623 -78 -156 -113 -307 -114
-491 -1 -244 56 -432 194 -638 296 -442 880 -610 1375 -395 121 53 223 121
327 221 303 291 416 715 299 1121 -115 397 -445 701 -855 785 -74 16 -246 27
-306 20z m105 -155 c-7 -22 -23 -21 -38 3 -7 11 -6 26 3 49 l14 33 13 -33 c8
-18 11 -42 8 -52z m-135 -10 c-11 -19 -14 -20 -27 -6 -12 11 -14 25 -8 53 l7
38 19 -32 c17 -25 18 -35 9 -53z m257 -6 c-13 -14 -16 -13 -26 6 -9 16 -8 28
6 53 l17 33 9 -38 c7 -31 6 -42 -6 -54z m143 18 c0 -36 -27 -62 -41 -40 -12
19 -11 26 7 54 20 30 34 24 34 -14z m-540 -26 c0 -30 -9 -36 -31 -22 -18 11
-26 56 -12 70 11 11 43 -24 43 -48z m240 -22 c0 -13 -6 -23 -14 -23 -7 0 -28
-3 -45 -6 -29 -6 -31 -5 -31 22 0 15 10 38 22 51 l22 23 23 -22 c13 -12 23
-32 23 -45z m114 32 c10 -16 14 -34 11 -47 -6 -16 -13 -19 -37 -14 -17 3 -37
6 -44 6 -23 0 -16 47 8 64 31 22 43 20 62 -9z m-234 -45 c0 -23 -4 -25 -52
-34 -34 -6 -38 -5 -44 19 -5 19 -1 32 16 50 l23 24 28 -20 c16 -11 29 -29 29
-39z m354 35 c18 -27 20 -44 7 -63 -11 -19 -91 2 -91 24 0 15 46 64 60 64 4 0
15 -11 24 -25z m195 -12 c-4 -34 -17 -53 -35 -53 -19 0 -18 40 3 62 23 26 35
22 32 -9z m-800 -32 c0 -3 -4 -14 -7 -24 -11 -26 -38 -1 -47 42 l-7 33 31 -23
c17 -12 31 -25 30 -28z m115 -17 c8 -21 1 -28 -43 -43 -27 -9 -36 -8 -43 1
-12 20 -10 41 8 66 14 20 17 21 43 7 16 -8 32 -22 35 -31z m616 17 c8 -21 9
-35 1 -49 -10 -20 -13 -20 -51 -5 -45 18 -50 33 -20 63 29 29 55 25 70 -9z
m186 -33 c-9 -45 -41 -65 -49 -30 -4 17 29 62 46 62 5 0 7 -14 3 -32z m-72
-10 c8 -31 7 -51 -3 -66 -7 -11 -16 -10 -50 7 -44 23 -48 29 -28 53 26 33 72
36 81 6z m-999 -4 c32 -21 35 -65 4 -57 -18 5 -39 39 -39 64 0 13 7 11 35 -7z
m105 6 c13 0 40 -30 40 -44 0 -7 -16 -20 -35 -29 -44 -21 -42 -21 -54 2 -13
24 8 84 27 76 8 -3 17 -5 22 -5z m630 -30 c132 -32 271 -105 369 -196 125
-117 192 -219 246 -379 37 -108 46 -291 21 -415 -66 -327 -319 -586 -643 -661
-123 -28 -319 -24 -428 11 -294 93 -515 330 -586 625 -28 118 -23 320 12 430
86 277 315 503 581 574 100 27 108 28 233 30 79 0 134 -5 195 -19z m450 -19
c0 -28 -21 -61 -40 -61 -28 0 -26 33 3 53 26 19 37 21 37 8z m-75 -31 c7 -30
-7 -60 -27 -60 -5 0 -24 10 -43 23 -33 22 -34 25 -19 45 10 15 26 22 49 22 29
0 34 -4 40 -30z m-1085 -17 c13 -12 11 -17 -20 -43 -19 -16 -38 -30 -42 -30
-15 0 -29 43 -23 71 6 28 9 30 38 24 18 -4 39 -14 47 -22z m-139 -6 c8 -7 18
-20 22 -29 9 -26 -39 -24 -53 1 -20 39 -3 55 31 28z m1321 -61 c3 -25 -1 -37
-14 -45 -15 -9 -25 -7 -54 15 -33 25 -34 28 -18 45 10 11 31 19 49 19 30 0 33
-3 37 -34z m73 2 c-16 -41 -55 -52 -55 -16 0 14 9 28 23 34 41 21 47 17 32
-18z m-1365 -23 c11 -13 8 -21 -20 -50 -31 -32 -34 -33 -46 -17 -7 9 -14 32
-14 50 0 30 2 32 34 32 18 0 39 -7 46 -15z m-112 -42 c18 -25 15 -33 -13 -33
-17 0 -29 9 -41 31 l-16 32 29 -7 c15 -4 34 -14 41 -23z m1480 7 c7 0 12 -14
12 -35 0 -25 -6 -37 -22 -46 -19 -10 -25 -8 -50 21 -26 32 -27 35 -11 53 11
11 25 16 38 13 11 -3 26 -6 33 -6z m92 -28 c0 -18 -33 -52 -51 -52 -23 0 -25
23 -3 44 16 16 54 22 54 8z m-1550 -37 c10 -12 8 -21 -10 -50 -24 -39 -44 -45
-60 -16 -18 35 -12 69 13 74 40 8 44 7 57 -8z m1543 -42 c13 -7 -5 -57 -26
-75 -20 -16 -22 -15 -44 17 -13 19 -23 38 -23 44 0 25 58 34 93 14z m-1645
-22 c11 -13 10 -17 -8 -25 -22 -10 -60 16 -60 41 0 18 50 7 68 -16z m1732 -8
c-1 -5 -9 -18 -19 -30 -31 -38 -78 -25 -53 13 11 17 72 31 72 17z m-1702 -42
c11 -7 10 -16 -7 -50 -24 -46 -31 -49 -53 -23 -27 31 -29 62 -5 72 28 11 49
12 65 1z m1657 -33 c29 -13 32 -34 9 -66 -22 -32 -48 -27 -67 13 -21 45 -21
52 1 58 28 8 30 7 57 -5z m-1745 -33 c15 -18 13 -20 -16 -29 -14 -4 -27 1 -44
19 l-23 25 35 0 c20 0 41 -7 48 -15z m1828 -41 c-18 -19 -31 -24 -47 -19 -17
5 -19 10 -11 26 8 13 21 19 48 19 l37 0 -27 -26z m-1798 -4 c17 -9 17 -12 2
-54 -15 -40 -18 -43 -38 -34 -18 8 -44 46 -44 63 0 4 50 34 58 35 2 0 12 -4
22 -10z m1761 -40 c34 -19 18 -71 -27 -84 -17 -5 -23 0 -32 33 -7 21 -12 43
-12 50 0 14 45 14 71 1z m-1831 -40 c9 -17 7 -20 -14 -26 -15 -3 -34 1 -52 12
l-27 18 24 7 c42 12 58 10 69 -11z m1930 -28 c0 -13 -54 -39 -72 -35 -39 9 -8
43 39 43 18 0 33 -4 33 -8z m-1897 -8 c12 -4 14 -15 10 -42 -3 -20 -9 -41 -13
-45 -13 -15 -51 3 -63 30 -10 22 -8 28 12 44 25 21 31 22 54 13z m1833 -55
c14 -15 16 -24 8 -37 -12 -19 -60 -49 -67 -42 -3 3 -8 26 -11 53 -7 47 -7 47
22 47 16 0 37 -9 48 -21z m-1897 -33 c9 -10 8 -16 -4 -26 -12 -10 -21 -10 -45
0 -36 15 -38 27 -7 33 40 8 44 7 56 -7z m49 -34 c9 -6 11 -21 6 -50 -5 -34
-11 -42 -28 -42 -11 0 -29 12 -40 26 -19 26 -19 26 10 50 33 26 34 27 52 16z
m1921 -1 c22 -14 -39 -42 -62 -29 -14 8 -16 13 -6 24 13 16 47 18 68 5z m-61
-54 l22 -24 -21 -26 c-11 -16 -30 -27 -44 -27 -20 0 -23 6 -27 46 -2 25 -1 47
1 50 12 12 50 1 69 -19z m-1917 -43 c10 -13 10 -17 -2 -25 -8 -5 -23 -7 -34
-4 -11 2 -26 5 -32 5 -21 0 -15 16 10 28 31 15 43 14 58 -4z m63 -65 c7 -47 8
-44 -20 -53 -14 -4 -27 1 -44 19 l-23 25 23 25 c36 38 56 33 64 -16z m1912 27
c18 -14 18 -15 -9 -25 -37 -14 -75 3 -56 25 15 18 40 18 65 0z m-85 -26 c5 0
16 -12 26 -26 16 -26 16 -27 -6 -45 -13 -11 -34 -19 -47 -19 -21 0 -24 5 -24
34 0 47 10 68 27 62 8 -3 19 -6 24 -6z m-1871 -76 c0 -18 -46 -29 -73 -17 -21
10 -21 10 7 25 33 17 66 13 66 -8z m54 -21 c18 -66 17 -79 -6 -80 -27 -2 -68
22 -68 40 0 18 38 57 55 57 7 0 16 -8 19 -17z m1881 -5 c33 -15 32 -24 -7 -32
-22 -4 -37 -2 -47 9 -14 14 -14 17 -1 25 19 12 24 12 55 -2z m-84 -18 c4 0 15
-13 24 -29 14 -29 14 -30 -13 -48 -37 -25 -76 -19 -68 10 4 12 9 35 13 50 4
19 10 26 20 23 8 -4 19 -6 24 -6z m-1837 -66 c29 -11 0 -44 -39 -44 -40 0 -44
11 -12 33 25 18 30 19 51 11z m79 -58 c15 -42 14 -44 -5 -50 -12 -3 -34 2 -50
10 -25 13 -27 17 -17 37 32 61 52 62 72 3z m1814 7 l26 -18 -34 -7 c-36 -7
-67 10 -55 31 10 16 33 14 63 -6z m-87 -3 c4 0 10 -8 13 -17 2 -10 8 -25 11
-34 11 -25 -53 -49 -81 -31 -19 12 15 95 35 87 7 -3 17 -5 22 -5z m-1754 -86
c-3 -9 -6 -20 -6 -25 0 -5 -19 -9 -42 -9 l-41 0 23 25 c27 28 76 35 66 9z m75
-25 c17 -34 18 -43 7 -51 -12 -8 -66 -3 -76 7 -11 11 10 74 26 78 9 3 18 5 19
6 2 0 12 -18 24 -40z m1629 -9 c11 -11 20 -31 20 -45 0 -20 -6 -25 -35 -31
-55 -10 -68 8 -41 56 24 46 29 47 56 20z m90 -5 l23 -25 -35 0 c-36 0 -65 21
-53 40 11 18 41 11 65 -15z m-1736 -64 c10 -16 -6 -41 -30 -47 -39 -10 -47 -1
-24 29 22 27 44 35 54 18z m81 -28 c15 -23 21 -41 15 -47 -10 -10 -64 -11 -80
-1 -18 11 9 85 31 85 4 0 20 -17 34 -37z m1496 -3 c13 -8 19 -21 19 -45 0 -32
-2 -35 -30 -35 -16 0 -33 -1 -36 -2 -4 -2 -11 4 -17 13 -8 12 -5 24 12 48 25
35 25 35 52 21z m90 -48 c-26 -4 -61 15 -61 33 0 25 34 23 57 -4 22 -25 22
-26 4 -29z m-1512 -44 c36 -40 25 -61 -28 -56 -40 3 -48 19 -32 61 14 35 25
34 60 -5z m-79 2 c0 -14 -11 -26 -32 -35 -18 -7 -34 -12 -36 -10 -2 2 4 17 13
34 18 36 55 43 55 11z m1438 -54 c-3 -27 -8 -31 -34 -34 -20 -2 -38 3 -48 14
-16 16 -15 19 15 50 31 32 34 33 51 17 13 -11 18 -28 16 -47z m70 19 c17 -36
16 -38 -15 -30 -46 11 -61 55 -20 55 16 0 28 -9 35 -25z m-1330 -58 c21 -23
22 -26 7 -41 -9 -9 -29 -16 -44 -16 -24 0 -30 5 -35 30 -7 38 11 72 33 60 9
-4 26 -19 39 -33z m-88 -2 c0 -17 -9 -29 -30 -40 -39 -20 -40 -20 -28 20 7 22
18 35 32 38 12 2 22 5 24 6 1 0 2 -10 2 -24z m1252 -44 c-4 -28 -8 -31 -38
-31 -24 0 -37 6 -45 21 -9 18 -6 25 23 50 32 27 34 27 49 9 10 -11 14 -30 11
-49z m55 31 c16 -10 35 -62 23 -62 -28 0 -60 25 -60 47 0 23 15 29 37 15z
m-1097 -74 c0 -16 -34 -38 -59 -38 -24 0 -30 5 -35 31 -10 51 8 63 55 36 21
-12 39 -25 39 -29z m936 15 c8 -13 7 -27 -2 -50 -13 -30 -15 -31 -44 -21 -17
5 -35 18 -40 28 -8 15 -4 22 23 38 40 26 50 26 63 5z m-1046 -16 c0 -15 -11
-29 -31 -41 l-31 -18 7 33 c4 19 13 37 19 41 21 14 36 8 36 -15z m1102 -9 c18
-15 31 -58 17 -58 -24 0 -57 32 -52 50 6 23 13 25 35 8z m-922 -18 c22 -11 40
-24 40 -28 0 -16 -16 -29 -47 -40 -31 -10 -32 -9 -43 22 -9 29 -6 66 6 66 3 0
23 -9 44 -20z m757 -30 c2 -14 -3 -33 -10 -42 -18 -23 -67 -10 -78 20 -7 19
-4 24 24 36 43 20 62 16 64 -14z m-830 -22 c-4 -13 -15 -29 -27 -36 -18 -11
-20 -10 -20 19 0 33 28 64 44 49 5 -5 6 -19 3 -32z m206 6 c15 -4 27 -11 27
-16 0 -14 -47 -58 -63 -58 -16 0 -37 41 -37 72 0 16 4 19 23 14 12 -4 34 -9
50 -12z m688 -12 c0 -4 3 -20 5 -35 l5 -28 -31 22 c-28 21 -38 47 -24 62 7 7
44 -10 45 -21z m-181 -9 c0 -16 -7 -37 -15 -47 -13 -18 -17 -18 -41 -5 -15 7
-30 23 -34 34 -6 16 -2 22 24 32 52 19 66 16 66 -14z m-363 -7 c9 -7 -14 -48
-35 -62 -25 -16 -26 -16 -44 6 -10 12 -18 33 -18 46 0 22 2 23 48 17 26 -3 48
-7 49 -7z m-229 -19 c4 -19 -32 -70 -42 -60 -3 3 -6 18 -6 33 0 44 40 67 48
27z m472 1 c0 -24 -26 -58 -45 -58 -20 0 -58 48 -52 64 5 11 20 16 52 16 40 0
45 -3 45 -22z m-120 -6 c0 -10 -11 -29 -25 -42 l-25 -23 -25 23 c-14 13 -25
32 -25 42 0 15 8 18 50 18 42 0 50 -3 50 -18z m300 -39 l0 -36 -25 23 c-37 35
-32 80 6 59 13 -7 19 -21 19 -46z m-530 17 c8 -16 7 -27 -7 -50 -12 -21 -19
-26 -25 -17 -12 18 -10 61 4 75 15 15 15 16 28 -8z m388 -2 c14 -14 16 -78 3
-78 -16 0 -40 47 -34 69 6 24 14 26 31 9z m-259 -17 c10 -18 -5 -81 -20 -81
-13 0 -20 71 -8 86 15 18 16 18 28 -5z m136 -10 c7 -22 -3 -71 -15 -71 -12 0
-30 58 -24 75 9 21 32 19 39 -4z"/>
<path d="M940 1939 c-295 -66 -536 -297 -622 -596 -33 -112 -33 -324 0 -437
111 -386 451 -633 846 -613 132 6 202 24 315 78 160 76 274 176 357 316 203
340 153 757 -126 1033 -199 198 -493 281 -770 219z m200 -30 c0 -5 -4 -9 -10
-9 -5 0 -10 7 -10 16 0 8 5 12 10 9 6 -3 10 -10 10 -16z m-14 -45 c-3 -9 -6
-39 -6 -67 -1 -45 -2 -50 -14 -35 -10 13 -15 15 -24 6 -19 -19 -15 12 5 34 15
17 15 18 -5 18 -13 0 -22 -6 -22 -15 0 -8 -9 -15 -20 -15 -20 0 -20 -1 -4 -27
16 -27 15 -27 -10 2 -20 23 -25 37 -20 58 4 21 2 27 -11 27 -22 0 -27 -20 -16
-68 5 -24 5 -42 0 -42 -5 0 -11 11 -14 25 -3 14 -7 36 -10 50 -3 14 -10 25
-16 25 -12 0 -7 -58 8 -96 4 -12 3 -15 -5 -10 -7 4 -17 27 -23 52 -11 42 -38
59 -30 18 2 -10 4 -32 5 -49 1 -16 5 -36 9 -42 5 -8 4 -13 -2 -13 -6 0 -11 5
-11 10 0 6 -7 10 -15 10 -8 0 -15 7 -15 16 0 8 5 12 10 9 24 -15 7 11 -26 40
l-36 33 63 21 c93 30 137 39 203 40 49 1 57 -1 52 -15z m239 -19 c28 -8 57
-19 65 -25 13 -9 13 -12 -2 -21 -10 -6 -18 -22 -18 -37 0 -16 -5 -33 -12 -40
-14 -14 -48 -16 -48 -2 0 5 -10 18 -21 29 -16 15 -20 28 -17 55 3 25 0 36 -9
36 -17 0 -29 -33 -32 -87 -1 -6 -8 -19 -18 -28 -14 -14 -14 -18 -2 -26 11 -7
11 -9 -3 -9 -22 0 -24 38 -3 46 20 8 19 24 -2 40 -12 8 -18 26 -18 56 l-1 45
46 -9 c25 -4 68 -15 95 -23z m-635 -45 c0 -5 -4 -10 -10 -10 -5 0 -10 5 -10
10 0 6 5 10 10 10 6 0 10 -4 10 -10z m789 -44 c-8 -6 -27 -31 -42 -56 -25 -42
-39 -42 -17 1 16 29 2 44 -21 23 -21 -19 -24 -13 -8 18 8 15 17 18 35 14 29
-8 33 10 4 19 -11 3 -20 13 -20 21 0 11 8 10 42 -7 35 -18 39 -23 27 -33z
m-779 -3 c0 -9 12 -31 26 -50 14 -19 23 -37 19 -41 -4 -4 -14 3 -22 16 -17 25
-38 30 -29 7 7 -18 -5 -20 -22 -3 -9 9 -12 8 -12 -5 0 -9 9 -21 21 -27 11 -7
18 -14 16 -17 -3 -2 -17 3 -31 12 -27 18 -36 55 -12 55 16 0 38 24 30 33 -4 4
-20 -3 -36 -14 -15 -11 -34 -19 -40 -17 -12 4 67 68 84 68 4 0 8 -7 8 -17z
m796 -60 c-10 -10 -19 5 -10 18 6 11 8 11 12 0 2 -7 1 -15 -2 -18z m-910 -22
c-19 -21 -11 -33 18 -25 15 3 29 -3 46 -20 14 -16 18 -26 10 -26 -7 0 -19 8
-26 17 -7 10 -16 15 -20 11 -4 -5 0 -16 9 -26 21 -23 22 -33 2 -26 -8 4 -15 1
-15 -5 0 -15 -33 -14 -48 1 -15 15 -16 48 -1 48 5 0 7 5 4 11 -5 7 -16 2 -31
-12 -23 -22 -32 -49 -16 -49 4 0 23 -14 42 -30 l35 -30 -32 6 c-26 5 -33 3
-33 -10 0 -10 8 -16 22 -16 12 0 19 -3 16 -6 -11 -10 -78 8 -78 22 0 20 -19
27 -35 14 -30 -25 -16 16 19 53 18 20 31 37 28 37 -3 0 14 20 38 45 24 24 47
42 52 39 5 -3 2 -14 -6 -23z m604 -6 c111 -23 193 -69 281 -155 116 -114 169
-238 169 -395 0 -304 -231 -551 -534 -572 -245 -16 -484 142 -568 375 -29 82
-36 258 -13 338 58 202 222 360 423 409 76 18 156 18 242 0z m544 -147 c52
-85 54 -92 27 -83 -21 6 -70 -13 -88 -35 -21 -26 -14 0 8 32 14 19 24 26 29
18 11 -18 34 15 23 35 -8 14 -15 12 -53 -14 -25 -16 -47 -27 -50 -25 -5 5 8
17 61 54 19 14 20 18 9 37 -13 20 -40 21 -40 1 0 -6 7 -7 16 -4 10 4 14 1 12
-6 -3 -7 -18 -17 -34 -22 -16 -4 -36 -12 -45 -17 -14 -7 -16 -4 -10 18 7 26
31 45 31 24 0 -6 5 -11 10 -11 6 0 10 8 10 18 0 10 5 23 12 30 8 8 9 15 2 22
-7 7 -23 -2 -48 -25 -22 -20 -41 -33 -44 -30 -3 3 -1 10 5 16 12 12 7 39 -7
39 -5 0 -12 -9 -15 -21 -4 -11 -9 -18 -11 -16 -3 3 2 22 11 42 8 21 18 35 22
32 12 -13 31 14 26 36 -9 37 79 -60 131 -145z m-264 144 c0 -13 -12 -22 -22
-16 -10 6 -1 24 13 24 5 0 9 -4 9 -8z m350 -206 c0 -3 -4 -8 -10 -11 -5 -3
-10 -1 -10 4 0 6 5 11 10 11 6 0 10 -2 10 -4z m-1380 -52 c0 -8 -4 -12 -10 -9
-5 3 -10 10 -10 16 0 5 5 9 10 9 6 0 10 -7 10 -16z m-50 -24 c0 -5 19 -15 43
-21 56 -16 74 -34 25 -25 -31 6 -38 4 -38 -9 0 -9 10 -15 28 -16 18 -1 21 -3
9 -6 -10 -3 -30 -2 -44 2 -21 5 -24 10 -19 30 4 14 2 25 -3 25 -5 0 -12 -11
-15 -25 -4 -14 -11 -25 -16 -25 -13 0 -13 10 1 49 10 29 29 43 29 21z m110 0
c0 -5 -4 -10 -10 -10 -5 0 -10 5 -10 10 0 6 5 10 10 10 6 0 10 -4 10 -10z
m1317 -70 c-3 -11 -1 -20 3 -20 9 0 19 -41 23 -93 2 -28 1 -28 -60 -32 -37 -3
-63 0 -63 5 0 6 14 10 30 10 30 0 41 14 18 23 -10 4 -9 8 2 16 22 16 30 13 30
-9 0 -11 5 -20 10 -20 12 0 14 57 2 64 -5 3 -30 -1 -55 -9 -41 -12 -64 -7 -38
9 5 3 7 14 4 24 -5 22 21 46 42 38 8 -3 15 -1 15 4 0 6 10 10 21 10 16 0 20
-5 16 -20z m-1408 -36 c44 -6 48 -8 48 -35 l0 -28 -23 24 c-23 25 -74 35 -74
15 0 -5 11 -10 24 -10 27 0 42 -15 27 -25 -6 -3 -20 0 -32 7 -17 10 -23 10
-26 1 -7 -20 -23 -15 -23 6 0 28 21 78 27 64 2 -7 26 -15 52 -19z m-10 -90
c51 -5 68 -14 28 -14 -32 0 -36 -16 -6 -25 26 -9 21 -33 -11 -53 -25 -16 -25
-16 -7 4 21 25 22 34 3 34 -8 0 -17 -8 -21 -17 -6 -17 -7 -17 -16 0 -14 24
-27 21 -32 -5 -3 -21 -4 -22 -12 -4 -10 22 18 48 41 39 9 -3 14 1 14 12 0 13
-6 15 -30 10 -26 -6 -30 -4 -30 15 0 17 4 21 18 15 9 -3 37 -8 61 -11z m1281
1 c-10 -12 -10 -19 -2 -27 9 -9 12 -9 12 0 0 7 5 12 10 12 6 0 10 -7 10 -15 0
-9 -9 -15 -25 -15 -27 0 -35 26 -13 48 17 17 23 15 8 -3z m70 -59 c0 -11 -19
-15 -25 -6 -3 5 1 10 9 10 9 0 16 -2 16 -4z m60 0 c0 -11 -19 -15 -25 -6 -3 5
1 10 9 10 9 0 16 -2 16 -4z m-1 -129 c15 -19 -10 -53 -33 -44 -19 7 -22 43 -3
50 20 9 24 8 36 -6z m-1404 -22 c0 -22 -31 -33 -47 -17 -17 17 -1 44 24 40 15
-2 23 -10 23 -23z m94 -135 c13 6 24 5 36 -4 15 -11 16 -18 7 -42 l-10 -29 -1
27 c-1 30 -11 40 -29 29 -16 -10 49 -110 108 -167 22 -21 40 -45 40 -53 0 -10
-3 -11 -14 -2 -10 9 -16 8 -26 -4 -8 -9 -22 -21 -32 -26 -17 -9 -19 -7 -16 13
2 15 10 23 23 23 11 0 20 6 20 14 0 27 -24 22 -64 -15 -51 -45 -54 -33 -5 17
21 21 33 42 29 49 -5 8 -10 8 -20 0 -10 -8 -19 -8 -34 2 -29 18 -26 32 4 24
15 -4 25 -2 25 4 0 23 -32 21 -69 -3 l-39 -26 -7 40 c-5 31 -3 45 8 56 19 19
47 10 54 -17 3 -11 9 -17 14 -14 5 3 1 17 -8 32 -9 15 -18 28 -19 30 0 1 -22
-6 -48 -17 -26 -12 -46 -16 -46 -10 0 6 18 18 39 26 23 9 42 24 46 37 4 13 8
16 11 9 4 -9 11 -10 23 -3z m1260 -40 c17 -7 31 -17 31 -22 0 -6 -8 -7 -17 -3
-31 12 -48 11 -48 -5 0 -8 13 -18 30 -21 l30 -7 -30 -1 c-43 -1 -59 12 -51 43
8 34 -7 34 -23 0 -12 -26 -8 -44 11 -44 16 0 60 -38 50 -44 -5 -3 -25 7 -45
21 -21 14 -40 23 -44 20 -3 -4 -4 -8 -2 -10 2 -1 21 -17 42 -35 l39 -33 -28 3
c-20 2 -29 -2 -29 -12 -1 -19 -20 -15 -48 10 -16 15 -23 17 -29 8 -4 -8 6 -27
29 -50 21 -21 32 -38 25 -38 -6 0 -25 14 -42 32 -43 45 -47 29 -4 -20 19 -23
32 -42 27 -42 -5 0 -14 5 -19 10 -11 11 -44 4 -44 -10 0 -4 10 -12 23 -18 13
-6 16 -11 7 -11 -21 -1 -63 22 -62 34 1 20 -20 36 -33 25 -8 -6 -16 -7 -19 -2
-3 5 13 24 35 42 38 30 39 33 23 51 -25 28 -11 51 31 48 25 -3 38 2 49 16 12
17 11 21 -7 36 -18 14 -19 19 -8 33 7 9 21 16 30 15 10 0 11 -2 4 -6 -16 -6
-17 -46 -1 -41 6 2 20 21 31 42 19 36 20 37 37 18 10 -10 32 -24 49 -32z
m-1265 -126 c9 -3 16 -14 16 -24 0 -20 -27 -46 -38 -36 -4 4 1 13 11 21 15 11
15 13 2 18 -17 7 -35 -20 -28 -43 4 -13 3 -13 -6 0 -12 17 -5 51 13 62 14 9
11 9 30 2z m276 -81 c0 -5 3 -19 5 -33 6 -25 6 -25 -5 -2 -5 13 -17 22 -25 20
-26 -5 -17 -22 23 -44 69 -39 153 -64 244 -74 50 -5 92 -10 93 -12 2 -2 -3
-30 -10 -63 -11 -47 -21 -69 -17 -34 1 4 -7 5 -18 2 -23 -6 -55 47 -32 55 17
5 15 22 -2 22 -9 0 -16 -17 -21 -50 -4 -28 -11 -47 -17 -44 -5 3 -6 19 -3 36
7 28 6 29 -14 19 -17 -10 -21 -9 -21 4 0 8 -4 15 -9 15 -15 0 -21 -30 -11 -51
7 -12 7 -19 1 -19 -12 0 -26 65 -16 79 4 7 22 9 46 5 23 -4 39 -3 39 3 0 13
-81 27 -90 16 -4 -4 -13 -28 -20 -53 -11 -36 -15 -40 -18 -22 -2 13 1 37 7 54
17 50 5 44 -14 -6 -16 -41 -20 -45 -44 -40 -31 7 -53 32 -43 48 7 12 9 18 11
42 1 11 7 15 21 11 26 -7 26 -1 0 13 -18 9 -22 5 -42 -35 -12 -25 -26 -45 -31
-45 -5 0 -7 7 -3 15 3 9 0 15 -9 15 -21 0 -35 31 -24 52 11 21 39 24 57 6 9
-9 12 -9 12 0 0 6 -13 18 -29 26 -29 15 -29 15 -60 -32 -21 -33 -31 -41 -31
-27 1 11 11 33 24 49 15 18 22 36 18 49 -3 12 -1 18 5 14 6 -4 16 0 23 8 13
15 50 21 50 8z m682 -51 c-7 -2 -3 -17 14 -43 14 -22 23 -46 21 -52 -2 -7 -16
7 -30 31 -37 57 -54 54 -22 -4 25 -45 26 -76 1 -42 -7 9 -21 15 -32 14 -22 -3
-31 -31 -13 -42 9 -5 10 -2 6 9 -4 10 -1 17 6 17 15 -1 52 -50 37 -50 -5 0
-10 5 -10 11 0 6 -7 8 -16 5 -9 -4 -27 0 -40 9 -20 13 -22 19 -14 41 13 33 13
44 -1 44 -6 0 -9 -7 -5 -15 7 -18 -5 -20 -22 -3 -17 17 -16 -3 3 -49 17 -41
19 -57 5 -48 -5 3 -15 24 -21 45 -15 51 -39 54 -35 5 2 -19 9 -43 17 -52 11
-14 9 -14 -11 2 -34 27 -41 38 -28 46 14 9 1 29 -18 29 -10 0 -14 -6 -10 -17
14 -52 17 -83 7 -83 -6 0 -11 4 -11 9 0 5 -10 11 -22 13 -15 2 -26 14 -33 33
-5 17 -14 33 -20 37 -14 10 -6 14 60 27 63 12 81 22 71 40 -10 16 -26 13 -26
-4 0 -8 -4 -15 -10 -15 -5 0 -10 9 -10 20 0 26 24 26 57 1 24 -20 25 -20 61 1
72 41 86 47 96 41 6 -4 6 -8 -2 -11z"/>
<path d="M1026 1851 c-8 -12 3 -41 15 -41 4 0 12 7 17 17 6 10 16 14 26 10 10
-4 16 -1 16 8 0 17 -65 22 -74 6z"/>
<path d="M860 1789 c7 -11 14 -18 17 -15 8 8 -5 36 -17 36 -7 0 -7 -6 0 -21z"/>
<path d="M1247 1843 c-4 -3 -7 -18 -7 -32 1 -25 1 -25 15 -7 23 30 15 63 -8
39z"/>
<path d="M1342 1812 c2 -10 14 -17 31 -19 36 -3 34 12 -4 26 -26 9 -30 8 -27
-7z"/>
<path d="M1320 1785 c0 -8 5 -15 10 -15 6 0 10 7 10 15 0 8 -4 15 -10 15 -5 0
-10 -7 -10 -15z"/>
<path d="M1362 1768 c-18 -18 -14 -38 7 -38 27 0 37 19 19 36 -11 11 -16 12
-26 2z"/>
<path d="M610 1596 c0 -8 4 -17 9 -20 10 -7 23 19 14 28 -11 11 -23 6 -23 -8z"/>
<path d="M527 1556 c-5 -13 10 -36 24 -36 16 0 15 27 -1 38 -14 8 -19 8 -23
-2z"/>
<path d="M1053 1649 c-138 -13 -244 -67 -343 -175 -101 -110 -146 -237 -137
-394 10 -208 117 -367 311 -464 50 -25 95 -46 99 -46 4 0 3 10 -4 21 -7 13 -7
19 -1 15 21 -13 22 14 2 53 -11 22 -20 48 -20 58 1 17 2 17 15 -1 8 -10 12
-23 8 -29 -4 -6 -1 -7 7 -2 9 6 10 2 5 -16 -7 -21 -6 -22 9 -10 15 12 15 16 1
37 -17 27 -19 38 -5 29 16 -10 12 11 -5 25 -13 11 -15 10 -9 -6 5 -18 5 -18
-10 0 -9 11 -16 25 -16 30 0 7 3 8 8 1 4 -5 14 -10 22 -10 8 0 23 -23 35 -51
11 -28 34 -68 50 -88 17 -21 37 -47 46 -58 8 -12 21 -19 27 -17 8 3 1 17 -17
39 -31 36 -42 61 -18 41 8 -6 18 -7 22 -3 5 4 5 -1 2 -11 -4 -10 -3 -16 2 -12
5 3 19 -7 30 -21 12 -15 24 -24 28 -20 4 3 -6 19 -20 34 -26 27 -40 59 -15 34
25 -25 31 -11 6 16 -34 37 -67 86 -105 157 -18 33 -33 54 -33 47 0 -7 7 -26
15 -43 9 -16 13 -35 9 -42 -4 -7 -4 -9 1 -5 12 11 73 -83 68 -103 -8 -29 -37
-14 -66 33 -24 38 -76 161 -95 223 -5 19 -5 19 12 2 10 -9 22 -15 27 -12 5 4
9 1 9 -5 0 -6 4 -8 10 -5 5 3 21 -18 35 -47 35 -69 106 -176 122 -182 19 -8
16 -2 -21 43 -29 35 -116 181 -116 195 0 14 30 -8 36 -26 3 -10 26 -48 50 -84
24 -35 43 -66 41 -68 -1 -2 0 -7 3 -10 3 -3 6 3 7 14 1 10 -7 26 -18 36 -10 9
-19 22 -19 28 0 5 19 -9 43 -32 42 -41 57 -50 57 -34 0 4 -10 12 -22 17 -12 6
-22 20 -23 32 -1 12 3 19 8 16 6 -4 7 5 3 22 -13 53 -19 90 -12 84 6 -6 36
-112 36 -127 0 -4 -5 0 -10 8 -5 8 -10 11 -10 5 0 -5 5 -17 10 -25 9 -13 10
-13 10 0 1 8 6 4 11 -9 5 -13 11 -22 14 -19 2 2 -4 28 -15 56 -26 69 -26 102
0 102 20 0 21 -2 24 -40 0 -10 10 -26 21 -34 11 -9 14 -16 8 -16 -16 0 -18
-70 -2 -70 5 0 7 5 3 12 -4 7 -3 8 5 4 15 -10 3 -27 -17 -25 -37 3 -43 -1 -36
-23 6 -21 4 -21 -25 6 -17 17 -31 25 -31 20 0 -13 50 -59 73 -67 9 -4 17 -2
17 4 0 6 4 8 9 4 5 -3 12 -1 16 5 6 9 -8 15 -29 11 -5 -1 -4 5 4 13 7 9 17 16
23 16 6 0 7 -3 4 -7 -4 -3 -2 -12 4 -19 7 -8 7 -14 -1 -19 -5 -3 -10 -11 -10
-16 0 -6 5 -7 12 -3 6 4 8 3 5 -3 -4 -6 0 -18 7 -28 25 -35 36 -7 38 98 l2
102 3 -97 c2 -54 5 -98 8 -98 23 0 190 171 215 220 134 263 63 564 -169 719
-117 78 -225 104 -368 90z m97 -113 c33 -1 35 -3 42 -46 14 -83 14 -85 -1 -82
-12 3 -12 1 0 -14 8 -9 12 -26 11 -37 -4 -24 18 -97 29 -97 10 0 -26 -68 -49
-94 -44 -48 -55 -113 -27 -150 8 -11 15 -36 15 -56 l0 -36 -42 5 c-38 5 -43 9
-49 40 -5 23 -3 42 6 55 8 12 11 33 8 51 -5 25 -7 27 -13 10 -4 -11 -3 -25 2
-32 11 -14 -5 -30 -81 -79 -61 -39 -124 -57 -173 -47 -58 11 -68 20 -61 56 5
29 111 228 134 252 5 5 10 -20 10 -65 2 -64 3 -69 9 -35 l7 40 2 -38 c2 -54
-22 -105 -53 -113 -14 -3 -31 -13 -38 -22 -12 -14 -10 -14 12 -1 14 7 52 16
85 19 44 4 60 9 61 20 5 71 6 76 12 52 7 -25 24 -31 31 -11 2 7 -1 9 -8 5 -6
-4 -11 -2 -11 4 0 7 6 10 14 7 10 -4 16 3 19 21 2 15 3 7 2 -18 l-2 -45 14 34
c12 29 12 36 -2 57 -8 13 -15 29 -15 35 0 7 -7 20 -16 30 -26 28 -11 82 25 96
32 12 34 24 9 63 -24 38 -31 90 -13 96 8 4 15 10 15 16 0 5 -4 7 -9 3 -15 -9
-24 14 -16 42 5 23 9 25 38 18 18 -4 48 -8 67 -9z m200 -81 c23 -28 5 -92 -42
-153 -41 -53 -78 -110 -44 -68 14 18 36 15 36 -5 0 -6 -4 -8 -9 -4 -5 3 -12 1
-15 -4 -4 -5 2 -8 11 -7 13 2 18 12 17 35 -1 25 2 31 14 26 11 -4 12 -2 5 7
-8 9 -3 20 15 38 17 17 23 20 19 8 -4 -11 -2 -15 7 -12 7 3 16 -2 20 -11 7
-19 -1 -38 -13 -31 -8 5 -11 -9 -12 -54 0 -22 -1 -23 -8 -6 -5 13 -10 16 -14
9 -4 -7 -2 -15 4 -19 24 -15 50 -98 64 -208 14 -102 14 -119 1 -151 -14 -33
-17 -34 -43 -24 -37 14 -52 28 -139 131 -73 86 -87 107 -61 92 9 -6 9 -5 0 7
-13 16 -6 58 16 96 8 15 10 10 11 -24 0 -24 4 -43 8 -43 4 0 6 16 4 35 -2 19
-1 43 3 52 7 16 8 15 14 -5 5 -21 7 -20 17 13 9 29 9 33 -2 24 -24 -20 -7 31
23 68 75 94 102 160 73 178 -5 3 -10 -1 -10 -9 0 -9 -4 -16 -10 -16 -11 0 -14
33 -3 43 11 12 30 8 43 -8z m-105 -5 c8 -12 -5 -60 -16 -60 -5 0 -9 16 -9 35
0 33 12 46 25 25z m-229 -172 c-3 -13 -6 -29 -6 -35 0 -7 -4 -13 -10 -13 -11
0 -13 30 -4 54 9 25 27 19 20 -6z m-59 -10 c-3 -8 -6 -5 -6 6 -1 11 2 17 5 13
3 -3 4 -12 1 -19z m25 -13 c-2 -19 -8 -35 -13 -35 -10 0 -11 16 -3 48 10 35
20 26 16 -13z m-32 -16 c0 -9 -7 -19 -15 -23 -11 -4 -15 2 -15 23 0 15 3 31 7
34 8 9 23 -13 23 -34z m70 -25 c0 -3 -10 -9 -22 -14 -21 -9 -20 -10 7 -7 28 2
30 -1 33 -35 3 -38 -2 -43 -37 -38 -8 1 -17 -4 -22 -11 -4 -7 -10 6 -14 34 -4
26 -12 50 -19 54 -6 4 -1 10 14 13 34 8 60 10 60 4z m-70 -34 c0 -5 -2 -10 -4
-10 -3 0 -8 5 -11 10 -3 6 -1 10 4 10 6 0 11 -4 11 -10z m10 -72 c0 -5 -4 -8
-10 -8 -5 0 -10 10 -10 23 0 18 2 19 10 7 5 -8 10 -18 10 -22z m-23 -55 c-3
-10 -5 -4 -5 12 0 17 2 24 5 18 2 -7 2 -21 0 -30z m41 2 c0 -14 -6 -25 -12
-25 -6 0 -12 9 -12 19 0 11 4 17 8 15 4 -3 8 0 8 5 0 6 2 11 4 11 2 0 4 -11 4
-25z m92 -88 c0 -12 14 -51 32 -87 42 -84 43 -87 30 -75 -24 23 -100 184 -89
188 18 7 27 -2 27 -26z m124 8 c3 -8 1 -15 -4 -15 -6 0 -10 7 -10 15 0 8 2 15
4 15 2 0 6 -7 10 -15z m-182 -33 c4 -12 -1 -18 -13 -19 -19 -2 -26 17 -12 30
11 12 20 8 25 -11z m188 -2 c0 -5 -4 -10 -10 -10 -5 0 -10 5 -10 10 0 6 5 10
10 10 6 0 10 -4 10 -10z m34 -15 c16 -24 16 -25 -4 -25 -15 0 -20 7 -20 25 0
14 2 25 4 25 2 0 11 -11 20 -25z m-117 -27 c-3 -8 -6 -5 -6 6 -1 11 2 17 5 13
3 -3 4 -12 1 -19z m53 -37 c4 -22 3 -38 -1 -35 -5 3 -9 1 -9 -5 0 -5 6 -12 13
-14 7 -4 8 -6 1 -6 -7 -1 -20 11 -30 27 -16 24 -16 26 0 13 15 -13 16 -11 10
30 -8 54 6 45 16 -10z m120 -16 c0 -8 -4 -15 -8 -15 -5 0 -9 7 -9 15 0 8 4 15
9 15 4 0 8 -7 8 -15z m-301 -37 c10 -30 9 -31 -4 -14 -8 11 -15 26 -15 33 0
22 8 14 19 -19z m161 -159 c0 -6 -4 -7 -10 -4 -5 3 -10 11 -10 16 0 6 5 7 10
4 6 -3 10 -11 10 -16z"/>
<path d="M1078 1497 c6 -7 9 -31 7 -53 l-5 -39 10 35 c10 38 5 70 -12 70 -7 0
-7 -4 0 -13z"/>
<path d="M1126 1502 c-3 -5 1 -9 9 -9 8 0 12 4 9 9 -3 4 -7 8 -9 8 -2 0 -6 -4
-9 -8z"/>
<path d="M1120 1470 c0 -5 9 -10 21 -10 11 0 17 5 14 10 -3 6 -13 10 -21 10
-8 0 -14 -4 -14 -10z"/>
<path d="M1075 1390 c3 -5 8 -10 11 -10 2 0 4 5 4 10 0 6 -5 10 -11 10 -5 0
-7 -4 -4 -10z"/>
<path d="M1266 1175 c8 -37 14 -45 14 -19 0 10 -5 26 -10 34 -8 11 -9 7 -4
-15z"/>
<path d="M1250 1114 c0 -21 4 -45 9 -53 5 -8 7 5 4 35 -7 61 -13 70 -13 18z"/>
<path d="M1210 1114 c0 -9 5 -12 12 -8 8 5 9 0 6 -14 -4 -12 -3 -24 1 -27 4
-2 8 11 8 30 0 23 -5 35 -14 35 -7 0 -13 -7 -13 -16z"/>
<path d="M1275 1088 c8 -24 8 -88 0 -96 -8 -9 -34 19 -38 41 l-4 22 -2 -21
c-1 -16 21 -41 72 -85 39 -35 60 -50 46 -34 -20 22 -30 50 -39 102 -8 44 -17
70 -23 66 -6 -4 -8 0 -4 10 4 10 2 17 -4 17 -7 0 -9 -8 -4 -22z"/>
<path d="M1166 1083 c-6 -14 -5 -15 5 -6 7 7 10 15 7 18 -3 3 -9 -2 -12 -12z"/>
<path d="M1010 655 c-7 -8 -8 -15 -3 -15 5 0 9 -9 10 -20 1 -11 -1 -19 -5 -17
-8 2 -12 -7 -12 -25 0 -6 3 -8 7 -5 3 4 11 3 17 -2 17 -13 86 -21 86 -10 0 6
-13 24 -30 41 -16 16 -30 33 -30 38 0 4 -6 13 -14 19 -10 9 -16 8 -26 -4z m33
-56 c-5 -5 -9 3 -11 19 -1 24 0 25 9 9 7 -11 7 -23 2 -28z"/>
<path d="M1271 634 c14 -17 32 -19 27 -2 -2 6 -12 12 -22 14 -14 2 -15 0 -5
-12z"/>
<path d="M1221 630 c0 -9 4 -21 11 -28 6 -6 9 -15 5 -19 -4 -3 -14 2 -22 13
-13 18 -14 18 -8 -3 4 -18 11 -22 37 -20 18 2 30 8 28 15 -1 9 6 10 24 6 19
-5 25 -3 22 6 -4 14 -59 24 -55 10 1 -4 -2 -7 -8 -6 -5 0 -9 5 -7 9 1 5 -2 6
-7 3 -5 -4 -12 2 -14 11 -4 14 -5 14 -6 3z"/>
<path d="M1640 1615 c-7 -8 -10 -19 -6 -22 9 -9 38 8 38 22 -1 16 -18 16 -32
0z"/>
<path d="M1825 1300 c-14 -15 -21 -17 -32 -9 -19 17 -27 5 -9 -14 9 -8 25 -12
40 -10 26 5 36 23 14 23 -9 0 -8 3 2 10 8 5 12 11 9 15 -3 3 -14 -4 -24 -15z"/>
<path d="M477 754 c-15 -15 -6 -26 10 -13 15 12 16 12 10 -3 -3 -10 -2 -18 4
-18 13 0 8 32 -7 37 -5 2 -13 0 -17 -3z"/>
<path d="M1595 700 c-7 -12 2 -30 15 -30 5 0 14 9 20 20 9 17 8 20 -9 20 -11
0 -23 -4 -26 -10z"/>
<path d="M1666 701 c-8 -12 21 -34 34 -26 8 5 8 11 -1 21 -13 16 -25 18 -33 5z"/>
<path d="M1586 612 c-7 -12 3 -42 14 -42 18 0 22 22 7 37 -9 9 -17 11 -21 5z"/>
<path d="M757 484 c-13 -13 -7 -24 14 -24 11 0 19 5 17 12 -5 14 -22 21 -31
12z"/>
<path d="M885 460 c-4 -7 -16 -10 -26 -7 -10 3 -21 2 -24 -3 -3 -4 5 -10 16
-13 12 -3 18 -10 15 -16 -4 -6 -13 -8 -21 -4 -8 3 -15 0 -15 -6 0 -6 11 -11
24 -11 17 0 27 9 36 30 13 30 9 52 -5 30z"/>
<path d="M1096 418 c4 -6 -1 -17 -10 -24 -12 -8 -14 -14 -6 -19 15 -9 40 13
40 36 0 11 -7 19 -16 19 -9 0 -12 -5 -8 -12z"/>
<path d="M1423 486 c7 -14 16 -21 20 -17 11 11 -2 41 -18 41 -10 0 -11 -5 -2
-24z"/>
<path d="M1234 437 c-7 -20 -2 -47 11 -50 14 -3 19 43 6 56 -7 7 -12 6 -17 -6z"/>
</g>
</svg>
